<svg xmlns="http://www.w3.org/2000/svg" xmlns:xlink="http://www.w3.org/1999/xlink" width="944" zoomAndPan="magnify" viewBox="0 0 708.75 567.000005" height="755" preserveAspectRatio="xMidYMid meet" version="1.0"><path fill="#e2e2d3" d="M 562.632812 265.277344 C 561.125 269.574219 558.4375 273.699219 554.703125 277.296875 C 542.65625 288.898438 459.28125 303.960938 427.941406 309.28125 C 420.570312 310.535156 416.074219 311.246094 416.074219 311.246094 L 392.445312 277.722656 C 392.445312 277.722656 515.757812 226.203125 541.75 233.121094 C 561.222656 238.308594 567.148438 252.480469 562.632812 265.277344 Z M 562.632812 265.277344 " fill-opacity="1" fill-rule="nonzero"/><path fill="#afaea0" d="M 562.632812 265.277344 C 561.125 269.574219 558.4375 273.699219 554.703125 277.296875 C 542.65625 288.898438 459.28125 303.960938 427.941406 309.28125 C 427.421875 300.730469 426.636719 290.851562 426.636719 290.851562 C 426.636719 290.851562 527.453125 278.394531 549.925781 267.363281 C 553.667969 265.539062 558.066406 264.929688 562.632812 265.277344 Z M 562.632812 265.277344 " fill-opacity="1" fill-rule="nonzero"/><path fill="#1c1d23" d="M 393.957031 278.164062 C 401.972656 288.949219 409.742188 299.488281 417.355469 310.34375 L 415.828125 309.699219 C 430.304688 305.820312 444.972656 303.160156 459.628906 300.453125 C 474.277344 297.695312 488.890625 294.769531 503.394531 291.449219 C 510.636719 289.785156 517.859375 288.015625 524.996094 286.042969 C 532.117188 284.066406 539.234375 281.925781 545.832031 279.105469 C 546.679688 278.78125 547.4375 278.363281 548.226562 277.988281 C 548.617188 277.792969 549.023438 277.609375 549.394531 277.402344 L 550.460938 276.761719 C 550.800781 276.546875 551.210938 276.347656 551.488281 276.117188 L 552.335938 275.445312 C 552.625 275.261719 552.925781 274.9375 553.226562 274.628906 C 553.519531 274.320312 553.84375 274.03125 554.117188 273.703125 C 556.417969 271.183594 558.3125 268.3125 559.546875 265.203125 C 560.808594 262.109375 561.347656 258.78125 561.105469 255.550781 C 560.863281 252.308594 559.710938 249.210938 557.910156 246.5 C 556.066406 243.804688 553.527344 241.542969 550.625 239.761719 C 547.699219 238.007812 544.441406 236.695312 541.035156 235.757812 C 539.59375 235.371094 537.886719 235.210938 536.15625 235.191406 C 534.417969 235.171875 532.636719 235.238281 530.84375 235.410156 C 527.257812 235.722656 523.632812 236.316406 520.027344 236.992188 C 512.808594 238.375 505.613281 240.199219 498.457031 242.179688 C 491.304688 244.164062 484.191406 246.34375 477.101562 248.617188 C 462.929688 253.171875 448.835938 258.054688 434.839844 263.191406 C 427.839844 265.753906 420.851562 268.375 413.886719 271.050781 L 403.445312 275.074219 L 398.238281 277.113281 L 395.636719 278.144531 L 394.339844 278.664062 L 393.691406 278.921875 L 393.367188 279.054688 L 393.207031 279.117188 C 393.226562 279.105469 393.039062 279.191406 393.238281 279.101562 C 393.582031 278.9375 393.898438 278.507812 393.957031 278.164062 Z M 390.941406 277.296875 C 391.046875 276.929688 391.421875 276.476562 391.8125 276.300781 L 392.003906 276.214844 L 392.164062 276.144531 L 392.488281 276.007812 L 393.132812 275.730469 L 394.425781 275.179688 L 397.007812 274.089844 L 402.183594 271.925781 L 412.554688 267.660156 C 419.488281 264.859375 426.445312 262.113281 433.417969 259.417969 C 447.378906 254.042969 461.414062 248.84375 475.625 244.097656 C 482.738281 241.738281 489.882812 239.464844 497.097656 237.378906 C 504.320312 235.300781 511.597656 233.367188 519.027344 231.867188 C 522.75 231.128906 526.496094 230.464844 530.351562 230.089844 C 532.273438 229.890625 534.234375 229.789062 536.226562 229.789062 C 538.226562 229.800781 540.273438 229.933594 542.445312 230.480469 C 546.257812 231.480469 550.007812 232.929688 553.507812 234.984375 C 556.988281 237.0625 560.195312 239.816406 562.609375 243.273438 C 564.992188 246.734375 566.535156 250.859375 566.855469 255.078125 C 567.1875 259.289062 566.488281 263.523438 564.945312 267.347656 C 563.4375 271.195312 561.152344 274.652344 558.4375 277.652344 C 558.113281 278.039062 557.742188 278.382812 557.390625 278.746094 C 557.042969 279.105469 556.707031 279.46875 556.226562 279.832031 L 554.886719 280.902344 C 554.4375 281.253906 553.996094 281.464844 553.550781 281.753906 L 552.214844 282.558594 C 551.769531 282.800781 551.324219 283.007812 550.878906 283.230469 C 549.992188 283.664062 549.101562 284.140625 548.207031 284.492188 C 541.070312 287.566406 533.847656 289.738281 526.601562 291.789062 C 519.34375 293.816406 512.0625 295.625 504.753906 297.335938 C 490.148438 300.734375 475.476562 303.726562 460.785156 306.542969 C 446.085938 309.375 431.339844 311.914062 416.320312 312.800781 L 415.355469 312.953125 L 414.789062 312.15625 C 406.660156 300.65625 398.675781 288.855469 390.941406 277.296875 Z M 390.941406 277.296875 " fill-opacity="1" fill-rule="nonzero"/><path fill="#e2e2d3" d="M 561.144531 277.109375 C 543.015625 296.078125 521.421875 285.367188 521.421875 285.367188 L 519.355469 283.527344 C 517.566406 281.925781 515.882812 280.265625 514.304688 278.53125 C 504.054688 267.269531 498.234375 253.246094 497.9375 238.757812 C 497.9375 238.757812 518.703125 220.746094 542.816406 222.871094 C 546.320312 223.171875 549.582031 224.132812 552.53125 225.617188 C 569.867188 234.3125 576.628906 260.894531 561.144531 277.109375 Z M 561.144531 277.109375 " fill-opacity="1" fill-rule="nonzero"/><path fill="#afaea0" d="M 561.144531 277.109375 C 543.015625 296.078125 521.421875 285.367188 521.421875 285.367188 L 519.355469 283.527344 C 517.566406 281.925781 515.882812 280.265625 514.304688 278.53125 L 515.039062 276.976562 C 515.039062 276.976562 530.777344 280.402344 546.90625 271.226562 C 560.175781 263.679688 558.4375 240.023438 552.53125 225.617188 C 569.867188 234.3125 576.628906 260.894531 561.144531 277.109375 Z M 561.144531 277.109375 " fill-opacity="1" fill-rule="nonzero"/><path fill="#1c1d23" d="M 498.960938 239.941406 C 500.046875 237.519531 499.261719 239.277344 499.503906 238.738281 L 499.503906 238.78125 L 499.507812 238.828125 L 499.511719 238.929688 L 499.519531 239.136719 L 499.542969 239.542969 L 499.582031 240.359375 C 499.613281 240.90625 499.621094 241.453125 499.675781 241.992188 C 499.796875 243.078125 499.871094 244.164062 500.03125 245.246094 C 500.347656 247.402344 500.753906 249.550781 501.3125 251.660156 C 502.410156 255.886719 503.992188 259.984375 505.996094 263.867188 C 507.996094 267.753906 510.421875 271.425781 513.191406 274.8125 C 514.578125 276.511719 516.050781 278.132812 517.597656 279.6875 C 519.148438 281.230469 520.773438 282.695312 522.464844 284.195312 L 522.117188 283.960938 C 523.539062 284.421875 525.164062 284.84375 526.722656 285.132812 C 528.300781 285.445312 529.890625 285.648438 531.46875 285.78125 C 534.636719 286.027344 537.792969 285.859375 540.859375 285.328125 C 543.945312 284.828125 546.851562 283.691406 549.667969 282.390625 L 551.695312 281.230469 L 552.710938 280.65625 L 553.65625 279.957031 L 555.550781 278.5625 C 555.878906 278.347656 556.167969 278.082031 556.449219 277.804688 L 557.320312 276.992188 C 562.136719 272.890625 565.304688 267.316406 566.558594 261.222656 C 567.851562 255.140625 567.097656 248.636719 564.75 242.832031 C 562.335938 237.070312 558.367188 231.84375 553.042969 228.65625 C 550.40625 227.058594 547.484375 225.90625 544.433594 225.398438 C 543.660156 225.316406 542.925781 225.140625 542.109375 225.121094 L 539.703125 225.003906 L 538.496094 224.945312 C 538.097656 224.9375 537.691406 224.976562 537.289062 224.988281 L 534.867188 225.097656 C 521.960938 226.140625 509.355469 232.015625 498.960938 239.941406 Z M 496.90625 237.578125 C 502.246094 233.011719 508.09375 229.378906 514.394531 226.414062 C 515.976562 225.699219 517.558594 224.976562 519.199219 224.390625 C 520.8125 223.726562 522.488281 223.226562 524.15625 222.707031 C 524.980469 222.421875 525.84375 222.234375 526.695312 222.03125 L 529.253906 221.429688 L 531.867188 221.023438 C 532.738281 220.910156 533.601562 220.714844 534.492188 220.691406 L 537.136719 220.515625 C 537.582031 220.496094 538.019531 220.445312 538.460938 220.445312 L 539.792969 220.480469 L 542.453125 220.558594 C 543.339844 220.566406 544.269531 220.746094 545.171875 220.835938 C 548.8125 221.375 552.332031 222.679688 555.507812 224.523438 C 558.6875 226.363281 561.503906 228.792969 563.839844 231.585938 C 566.191406 234.375 568.109375 237.511719 569.492188 240.867188 C 572.25 247.566406 573.1875 255.074219 571.722656 262.265625 C 571.007812 265.851562 569.714844 269.34375 567.882812 272.53125 C 566.070312 275.710938 563.664062 278.625 560.96875 280.960938 L 559.980469 281.886719 C 559.660156 282.203125 559.328125 282.503906 558.953125 282.761719 L 556.773438 284.394531 L 555.679688 285.203125 L 554.496094 285.890625 L 552.125 287.257812 C 551.304688 287.664062 550.453125 288 549.613281 288.359375 L 548.347656 288.890625 C 547.917969 289.046875 547.472656 289.160156 547.03125 289.296875 C 546.15625 289.554688 545.277344 289.832031 544.394531 290.058594 L 541.691406 290.523438 C 538.074219 291.011719 534.40625 290.941406 530.867188 290.3125 C 529.101562 289.988281 527.359375 289.558594 525.671875 288.96875 C 523.960938 288.398438 522.378906 287.703125 520.71875 286.761719 L 520.492188 286.632812 L 520.375 286.527344 C 518.710938 285.054688 517.003906 283.511719 515.371094 281.894531 C 513.753906 280.265625 512.210938 278.570312 510.757812 276.792969 C 507.851562 273.234375 505.304688 269.382812 503.203125 265.296875 C 501.09375 261.210938 499.429688 256.894531 498.269531 252.4375 C 497.683594 250.210938 497.253906 247.945312 496.921875 245.671875 C 496.753906 244.53125 496.667969 243.378906 496.542969 242.238281 C 496.488281 241.664062 496.480469 241.089844 496.445312 240.511719 L 496.402344 239.648438 L 496.382812 239.214844 L 496.375 239 L 496.371094 238.890625 L 496.367188 238.835938 L 496.367188 238.796875 C 496.609375 238.257812 495.832031 240.011719 496.90625 237.578125 Z M 496.90625 237.578125 " fill-opacity="1" fill-rule="nonzero"/><path fill="#e2e2d3" d="M 314.140625 254.96875 L 289.523438 270.09375 L 279.195312 276.441406 C 279.195312 276.441406 217.34375 237.40625 184.585938 210.5 C 174.464844 202.191406 167.128906 195.03125 165.230469 190.535156 C 157.210938 171.488281 167.96875 151.148438 194.582031 155.042969 C 221.191406 158.957031 314.140625 254.96875 314.140625 254.96875 Z M 314.140625 254.96875 " fill-opacity="1" fill-rule="nonzero"/><path fill="#afaea0" d="M 289.523438 270.09375 L 279.195312 276.441406 C 279.195312 276.441406 217.34375 237.40625 184.585938 210.5 L 202.898438 207.125 C 202.894531 207.121094 260.90625 251.382812 289.523438 270.09375 Z M 289.523438 270.09375 " fill-opacity="1" fill-rule="nonzero"/><path fill="#1c1d23" d="M 315.695312 255.164062 C 304.023438 262.730469 292.027344 270.425781 280.019531 277.769531 L 279.183594 278.28125 L 278.363281 277.761719 L 278.359375 277.761719 C 265.632812 269.886719 253.082031 261.777344 240.605469 253.53125 C 228.132812 245.28125 215.785156 236.832031 203.664062 228.03125 C 197.609375 223.625 191.605469 219.128906 185.722656 214.453125 C 179.84375 209.753906 174.046875 204.953125 168.703125 199.378906 C 168.019531 198.710938 167.398438 197.933594 166.75 197.199219 C 166.429688 196.820312 166.101562 196.464844 165.789062 196.070312 L 164.886719 194.832031 C 164.59375 194.398438 164.273438 194.039062 164.003906 193.550781 L 163.207031 192.078125 C 162.914062 191.574219 162.753906 191.117188 162.574219 190.648438 C 162.398438 190.179688 162.191406 189.726562 162.046875 189.246094 C 160.734375 185.460938 160 181.433594 160.117188 177.351562 C 160.195312 173.277344 161.199219 169.160156 163.136719 165.46875 C 165.058594 161.761719 168.054688 158.617188 171.554688 156.375 C 175.089844 154.15625 179.082031 152.875 183.074219 152.316406 C 187.078125 151.792969 191.082031 151.914062 194.972656 152.46875 C 197.171875 152.808594 199.101562 153.480469 200.945312 154.246094 C 202.777344 155.019531 204.542969 155.867188 206.234375 156.804688 C 209.636719 158.644531 212.835938 160.714844 215.976562 162.839844 C 228.46875 171.425781 239.941406 181.113281 251.164062 191.054688 C 262.367188 201.003906 273.308594 211.226562 283.941406 221.75 C 289.265625 227.003906 294.59375 232.253906 299.792969 237.628906 L 307.582031 245.703125 L 311.445312 249.769531 L 313.359375 251.820312 L 314.316406 252.84375 L 314.792969 253.359375 L 315.027344 253.621094 L 315.148438 253.75 L 315.289062 253.90625 C 315.578125 254.222656 315.738281 254.78125 315.695312 255.164062 Z M 312.582031 254.773438 C 312.496094 255.109375 312.617188 255.628906 312.867188 255.90625 C 313.011719 256.070312 312.871094 255.917969 312.890625 255.9375 L 312.761719 255.816406 L 312.515625 255.570312 L 312.011719 255.085938 L 311.011719 254.109375 L 309.003906 252.164062 L 304.992188 248.265625 L 296.929688 240.511719 C 291.515625 235.378906 286.164062 230.1875 280.71875 225.097656 C 269.816406 214.925781 258.894531 204.785156 247.691406 194.988281 C 242.09375 190.085938 236.410156 185.292969 230.65625 180.605469 C 224.902344 175.929688 219.046875 171.375 212.980469 167.210938 C 209.949219 165.144531 206.867188 163.144531 203.707031 161.421875 C 202.132812 160.542969 200.53125 159.769531 198.925781 159.085938 C 197.332031 158.410156 195.699219 157.867188 194.203125 157.632812 C 190.703125 157.121094 187.175781 157.019531 183.769531 157.449219 C 180.371094 157.917969 177.109375 158.976562 174.296875 160.726562 C 171.515625 162.507812 169.179688 164.933594 167.644531 167.863281 C 166.109375 170.78125 165.261719 174.101562 165.191406 177.492188 C 165.078125 180.882812 165.6875 184.316406 166.804688 187.589844 C 166.929688 188.003906 167.113281 188.398438 167.261719 188.804688 C 167.414062 189.210938 167.566406 189.632812 167.761719 189.933594 L 168.289062 190.929688 C 168.460938 191.265625 168.761719 191.613281 168.988281 191.953125 L 169.722656 192.988281 C 169.984375 193.328125 170.285156 193.660156 170.566406 194 C 171.148438 194.667969 171.679688 195.359375 172.324219 196.003906 C 177.269531 201.265625 182.949219 206.085938 188.6875 210.761719 C 194.445312 215.4375 200.359375 219.957031 206.335938 224.394531 C 230.320312 242.046875 255.0625 258.796875 280.035156 275.105469 L 278.378906 275.09375 C 289.65625 268.136719 300.960938 261.519531 312.582031 254.773438 Z M 312.582031 254.773438 " fill-opacity="1" fill-rule="nonzero"/><path fill="#e2e2d3" d="M 232.609375 177.53125 C 226.777344 190.390625 216.277344 200.777344 202.90625 207.125 C 200.449219 208.296875 197.894531 209.320312 195.25 210.207031 L 192.628906 211.078125 C 192.628906 211.078125 168.558594 212.40625 159.398438 187.808594 C 154.703125 175.199219 158.832031 162.335938 167.074219 153.800781 C 174.90625 145.699219 186.449219 141.519531 197.660156 145.207031 C 220.636719 152.785156 232.609375 177.53125 232.609375 177.53125 Z M 232.609375 177.53125 " fill-opacity="1" fill-rule="nonzero"/><path fill="#afaea0" d="M 206.554688 204.476562 L 202.90625 207.121094 C 200.449219 208.292969 197.894531 209.316406 195.25 210.203125 L 192.628906 211.074219 C 192.628906 211.074219 168.558594 212.402344 159.398438 187.804688 C 154.703125 175.195312 158.832031 162.332031 167.074219 153.796875 C 165.160156 164.609375 161.28125 204.050781 206.554688 204.476562 Z M 206.554688 204.476562 " fill-opacity="1" fill-rule="nonzero"/><path fill="#1c1d23" d="M 189.289062 145.4375 C 181.726562 145.4375 174.09375 148.769531 168.15625 154.941406 C 159.558594 163.871094 156.761719 176.257812 160.863281 187.265625 C 169.160156 209.539062 189.910156 209.589844 192.339844 209.519531 L 194.75 208.714844 C 210.960938 203.289062 224.082031 191.960938 230.863281 177.558594 C 228.800781 173.664062 217.1875 153.292969 197.160156 146.691406 C 194.601562 145.851562 191.949219 145.4375 189.289062 145.4375 Z M 192.160156 212.652344 C 188.402344 212.652344 166.59375 211.625 157.925781 188.355469 C 153.398438 176.210938 156.453125 162.570312 165.902344 152.765625 C 174.773438 143.550781 187.128906 140.085938 198.148438 143.714844 C 221.5 151.414062 233.523438 175.808594 234.023438 176.84375 L 234.34375 177.507812 L 234.042969 178.175781 C 226.996094 193.691406 213.039062 205.902344 195.75 211.6875 L 192.929688 212.632812 L 192.714844 212.644531 C 192.695312 212.648438 192.5 212.652344 192.160156 212.652344 Z M 192.160156 212.652344 " fill-opacity="1" fill-rule="nonzero"/><path fill="#e2e2d3" d="M 422.515625 553.234375 L 385.855469 559.96875 C 382.289062 560.628906 378.753906 560.375 375.527344 559.382812 C 368.953125 557.363281 363.597656 552.269531 361.621094 545.433594 C 361.546875 545.191406 361.472656 544.957031 361.421875 544.714844 L 340.339844 460.425781 C 338.046875 451.25 304.632812 420.621094 304.257812 406.40625 L 306.285156 406.03125 L 325.839844 402.441406 L 316.5625 365.324219 C 313.617188 353.507812 321.757812 341.679688 334.148438 339.769531 L 349.785156 337.367188 C 359.789062 335.828125 369.453125 341.328125 372.910156 350.527344 L 435.984375 518.128906 L 438.796875 525.589844 C 443.335938 537.625 435.554688 550.835938 422.515625 553.234375 Z M 422.515625 553.234375 " fill-opacity="1" fill-rule="nonzero"/><path fill="#afaea0" d="M 383.535156 522.449219 L 375.527344 559.382812 C 368.953125 557.363281 363.597656 552.269531 361.621094 545.433594 C 361.546875 545.191406 361.472656 544.957031 361.421875 544.714844 L 340.339844 460.425781 C 338.046875 451.25 304.632812 420.621094 304.257812 406.40625 L 306.285156 406.03125 L 347.710938 427.222656 Z M 383.535156 522.449219 " fill-opacity="1" fill-rule="nonzero"/><path fill="#1c1d23" d="M 441.832031 524.4375 C 442.921875 527.355469 443.449219 530.492188 443.339844 533.625 C 443.230469 536.75 442.480469 539.847656 441.183594 542.683594 C 438.597656 548.375 433.695312 552.886719 427.933594 555.207031 C 427.195312 555.472656 426.472656 555.757812 425.734375 555.992188 L 423.476562 556.546875 C 422.070312 556.84375 420.8125 557.0625 419.46875 557.320312 L 411.546875 558.828125 L 395.699219 561.832031 L 387.777344 563.335938 C 387.113281 563.457031 386.496094 563.589844 385.667969 563.699219 C 384.894531 563.804688 384.121094 563.941406 383.332031 563.953125 C 382.546875 563.992188 381.765625 564.050781 380.972656 563.992188 C 380.1875 563.960938 379.398438 563.9375 378.621094 563.8125 C 372.367188 563.0625 366.410156 559.847656 362.394531 554.890625 C 361.878906 554.285156 361.445312 553.605469 360.976562 552.960938 C 360.542969 552.296875 360.160156 551.59375 359.761719 550.90625 C 359.402344 550.1875 359.082031 549.460938 358.75 548.730469 L 357.988281 546.527344 C 357.71875 545.59375 357.585938 545.011719 357.414062 544.355469 L 356.921875 542.402344 L 355.933594 538.492188 L 351.988281 522.859375 L 344.277344 491.558594 L 336.746094 460.726562 C 336.421875 459.886719 335.789062 458.796875 335.160156 457.773438 C 334.488281 456.726562 333.773438 455.667969 333.003906 454.621094 C 331.484375 452.515625 329.851562 450.421875 328.199219 448.332031 C 324.898438 444.140625 321.511719 439.941406 318.199219 435.65625 C 314.925781 431.339844 311.660156 426.976562 308.789062 422.273438 C 307.347656 419.921875 305.980469 417.511719 304.824219 414.933594 C 303.6875 412.363281 302.730469 409.578125 302.691406 406.449219 L 302.691406 406.445312 L 302.578125 405.117188 L 303.976562 404.859375 L 325.554688 400.898438 L 325.558594 400.894531 L 324.316406 402.820312 L 314.835938 365.914062 C 313.953125 362.601562 313.875 359.011719 314.625 355.632812 C 315.367188 352.242188 316.910156 349.042969 319.0625 346.332031 C 321.203125 343.613281 323.976562 341.382812 327.101562 339.875 C 328.671875 339.128906 330.304688 338.527344 331.992188 338.128906 C 333.738281 337.71875 335.261719 337.511719 336.835938 337.253906 L 346.242188 335.753906 C 347.835938 335.511719 349.296875 335.226562 351.097656 335.050781 C 351.964844 334.964844 352.839844 334.964844 353.710938 334.953125 C 354.578125 335.011719 355.457031 335.007812 356.320312 335.15625 C 363.269531 335.984375 369.757812 340.167969 373.367188 346.253906 C 373.78125 347.035156 374.246094 347.789062 374.570312 348.613281 L 375.082031 349.820312 L 375.507812 350.933594 L 377.210938 355.378906 L 380.609375 364.28125 L 387.414062 382.074219 Z M 435.765625 526.722656 L 382.820312 383.8125 L 376.199219 365.949219 L 372.894531 357.019531 L 370.824219 351.433594 L 370.410156 350.449219 C 370.164062 349.78125 369.789062 349.183594 369.472656 348.558594 C 366.644531 343.671875 361.4375 340.1875 355.753906 339.457031 C 355.050781 339.320312 354.332031 339.328125 353.621094 339.265625 C 352.90625 339.269531 352.1875 339.257812 351.472656 339.324219 C 350.113281 339.4375 348.445312 339.722656 346.898438 339.945312 L 337.472656 341.34375 C 335.90625 341.574219 334.277344 341.789062 332.929688 342.09375 C 331.519531 342.40625 330.15625 342.890625 328.847656 343.492188 C 326.230469 344.703125 323.902344 346.53125 322.089844 348.773438 C 318.421875 353.234375 316.898438 359.382812 318.367188 365.039062 L 327.367188 402.0625 L 327.761719 403.695312 L 326.125 403.984375 L 326.121094 403.984375 L 304.542969 407.949219 L 305.832031 406.367188 C 306.097656 408.632812 307.140625 410.964844 308.34375 413.207031 C 309.578125 415.445312 311.046875 417.613281 312.597656 419.730469 C 315.730469 423.945312 319.113281 428.050781 322.617188 432.074219 L 333.195312 444.238281 C 334.949219 446.304688 336.699219 448.390625 338.40625 450.585938 C 339.257812 451.679688 340.097656 452.816406 340.917969 454.007812 C 341.71875 455.25 342.546875 456.4375 343.238281 458.089844 C 343.414062 458.511719 343.570312 459.015625 343.71875 459.484375 L 343.984375 460.484375 L 344.496094 462.4375 L 345.515625 466.339844 L 347.550781 474.144531 L 351.53125 489.78125 L 359.472656 521.050781 L 363.351562 536.710938 L 365.246094 544.308594 C 365.882812 546.535156 366.882812 548.417969 368.265625 550.144531 C 371.015625 553.5625 375.167969 555.863281 379.578125 556.457031 C 380.125 556.5625 380.683594 556.570312 381.242188 556.605469 C 381.796875 556.660156 382.355469 556.609375 382.914062 556.597656 C 383.472656 556.605469 384.027344 556.503906 384.585938 556.4375 C 385.097656 556.386719 385.796875 556.257812 386.453125 556.140625 L 394.394531 554.726562 L 410.277344 551.902344 L 418.21875 550.492188 C 419.523438 550.253906 420.914062 550.027344 422.140625 549.777344 L 423.804688 549.390625 C 424.34375 549.222656 424.871094 549.015625 425.410156 548.839844 C 429.609375 547.195312 433.222656 543.964844 435.144531 539.859375 C 437.085938 535.765625 437.3125 530.988281 435.765625 526.722656 Z M 435.765625 526.722656 " fill-opacity="1" fill-rule="nonzero"/><path fill="#e2e2d3" d="M 334.054688 386.179688 L 322.660156 416.390625 C 319.324219 419.035156 313.28125 422.851562 306.265625 427.09375 C 289.785156 437.035156 267.925781 449.277344 263.125 453.863281 L 202.980469 511.246094 L 200.261719 513.839844 C 199.035156 515.007812 197.710938 515.996094 196.296875 516.796875 C 188.558594 521.195312 178.449219 520.140625 171.453125 513.679688 L 144.0625 488.402344 C 134.324219 479.414062 134.808594 464.101562 145.082031 456.332031 L 148.921875 453.4375 L 294.335938 343.5625 C 302.179688 337.636719 313.292969 338.148438 320.925781 344.78125 L 332.855469 355.171875 C 342.308594 363.410156 342.863281 377.765625 334.054688 386.179688 Z M 334.054688 386.179688 " fill-opacity="1" fill-rule="nonzero"/><path fill="#ffffff" d="M 234.671875 402.089844 L 165.09375 451.507812 L 157.746094 450.351562 L 153.824219 449.722656 L 149.882812 449.105469 L 228.367188 390.246094 L 229.570312 392.5 L 230.769531 394.757812 Z M 234.671875 402.089844 " fill-opacity="1" fill-rule="nonzero"/><path fill="#afaea0" d="M 308.855469 421.027344 C 308.804688 421.367188 307.839844 423.582031 306.261719 427.09375 C 289.78125 437.035156 267.921875 449.277344 263.121094 453.863281 L 202.976562 511.246094 L 200.257812 513.839844 C 199.03125 515.007812 197.707031 515.996094 196.292969 516.796875 L 198.929688 473.195312 L 272.714844 416.503906 C 272.722656 416.5 309.234375 418.773438 308.855469 421.027344 Z M 308.855469 421.027344 " fill-opacity="1" fill-rule="nonzero"/><path fill="#1c1d23" d="M 332.699219 385.339844 L 332.59375 385.621094 L 321.394531 415.46875 C 320.882812 415.769531 320.390625 416.0625 319.910156 416.378906 L 319.191406 416.859375 L 318.324219 417.386719 C 317.171875 418.109375 316.03125 418.84375 314.847656 419.542969 C 312.527344 420.964844 310.144531 422.320312 307.78125 423.691406 C 307.769531 423.691406 307.769531 423.699219 307.757812 423.699219 L 293.371094 431.808594 C 288.5625 434.496094 283.773438 437.246094 278.972656 440.015625 C 276.578125 441.382812 274.195312 442.808594 271.824219 444.257812 C 269.449219 445.722656 267.085938 447.1875 264.714844 448.824219 L 262.9375 450.09375 L 261.105469 451.605469 L 258.085938 454.4375 L 252.082031 460.136719 L 240.085938 471.53125 L 216.175781 494.40625 L 204.222656 505.839844 L 198.242188 511.558594 C 197.699219 512.078125 197.121094 512.574219 196.527344 513.011719 C 195.242188 513.972656 193.839844 514.75 192.324219 515.300781 C 187.917969 516.964844 182.839844 516.746094 178.507812 514.777344 C 177.953125 514.558594 177.441406 514.265625 176.929688 513.972656 C 176.398438 513.703125 175.914062 513.351562 175.425781 513.011719 C 174.914062 512.699219 174.472656 512.304688 174.011719 511.917969 C 173.574219 511.570312 173.0625 511.09375 172.550781 510.621094 L 166.464844 505.019531 L 154.292969 493.8125 L 148.207031 488.210938 C 146.054688 486.253906 144.390625 484.71875 143.074219 482.703125 C 140.375 478.761719 139.421875 473.710938 140.347656 469.082031 C 140.808594 466.757812 141.726562 464.542969 143.066406 462.601562 C 143.433594 462.140625 143.726562 461.628906 144.132812 461.207031 C 144.539062 460.789062 144.929688 460.335938 145.347656 459.917969 L 146.695312 458.769531 C 147.183594 458.375 147.78125 457.945312 148.316406 457.527344 L 157.75 450.355469 L 230.773438 394.765625 L 253.632812 377.363281 L 279.929688 357.28125 L 293.074219 347.222656 L 294.714844 345.96875 L 295.53125 345.34375 L 296.304688 344.800781 C 296.792969 344.433594 297.328125 344.121094 297.871094 343.816406 C 298.394531 343.492188 298.972656 343.273438 299.527344 343.003906 C 301.796875 341.996094 304.28125 341.53125 306.761719 341.507812 C 309.25 341.507812 311.757812 341.949219 314.078125 342.898438 C 315.226562 343.378906 316.359375 343.933594 317.402344 344.625 C 317.9375 344.953125 318.460938 345.3125 318.941406 345.71875 L 319.683594 346.304688 L 320.46875 346.976562 L 326.742188 352.371094 L 329.878906 355.066406 L 331.449219 356.414062 C 331.949219 356.855469 332.367188 357.296875 332.839844 357.730469 C 336.394531 361.320312 338.539062 366.28125 338.589844 371.359375 L 338.589844 371.699219 C 338.589844 376.65625 336.5625 381.578125 332.976562 385.046875 Z M 335.480469 355.152344 C 334.945312 354.636719 334.402344 354.070312 333.878906 353.605469 L 332.332031 352.238281 L 329.226562 349.507812 L 323.011719 344.03125 L 322.238281 343.351562 L 321.371094 342.640625 C 320.804688 342.152344 320.1875 341.722656 319.550781 341.3125 C 318.308594 340.46875 316.957031 339.785156 315.578125 339.191406 C 312.804688 338.019531 309.785156 337.433594 306.765625 337.40625 C 303.742188 337.382812 300.6875 337.925781 297.886719 339.121094 C 297.195312 339.433594 296.484375 339.707031 295.824219 340.101562 C 295.15625 340.460938 294.496094 340.835938 293.878906 341.285156 L 292.949219 341.921875 L 292.113281 342.550781 L 290.460938 343.78125 L 277.191406 353.671875 L 250.695312 373.488281 L 228.359375 390.246094 L 149.882812 449.105469 L 144.820312 452.898438 C 144.253906 453.328125 143.734375 453.703125 143.148438 454.179688 L 141.351562 455.707031 C 140.796875 456.257812 140.261719 456.84375 139.730469 457.417969 C 139.1875 458.007812 138.769531 458.667969 138.289062 459.300781 C 136.480469 461.894531 135.238281 464.863281 134.628906 467.949219 C 133.386719 474.105469 134.648438 480.742188 138.164062 485.949219 C 138.546875 486.625 139.09375 487.203125 139.554688 487.828125 C 140.015625 488.46875 140.558594 489.035156 141.101562 489.585938 L 141.917969 490.425781 C 142.199219 490.703125 142.429688 490.902344 142.691406 491.144531 L 144.207031 492.558594 L 150.28125 498.164062 L 162.417969 509.398438 L 168.492188 515.023438 C 168.992188 515.488281 169.476562 515.945312 170.113281 516.46875 C 170.707031 516.96875 171.304688 517.488281 171.964844 517.90625 C 172.601562 518.359375 173.253906 518.820312 173.941406 519.1875 C 174.621094 519.570312 175.308594 519.957031 176.03125 520.253906 C 181.746094 522.863281 188.492188 523.1875 194.445312 520.972656 C 197.414062 519.886719 200.171875 518.128906 202.433594 515.957031 L 208.425781 510.257812 L 220.40625 498.851562 L 244.386719 476.046875 L 256.324219 464.597656 L 262.296875 458.871094 L 265.265625 456.003906 L 266.601562 454.867188 L 268.179688 453.703125 C 272.488281 450.609375 277.234375 447.746094 281.867188 444.828125 L 295.941406 436.160156 C 300.636719 433.265625 305.328125 430.351562 309.964844 427.308594 C 312.285156 425.792969 314.597656 424.261719 316.886719 422.675781 C 318.035156 421.902344 319.175781 421.066406 320.292969 420.230469 L 321.140625 419.613281 L 322.082031 418.859375 C 322.707031 418.34375 323.324219 417.824219 323.921875 417.300781 L 335.394531 387.050781 C 339.585938 383.007812 342.023438 377.1875 342 371.339844 C 342.046875 365.378906 339.640625 359.4375 335.480469 355.152344 Z M 335.480469 355.152344 " fill-opacity="1" fill-rule="nonzero"/><path fill="#afaea0" d="M 216.957031 379.285156 L 214.679688 389.488281 C 213.695312 393.90625 216.175781 398.355469 220.449219 399.828125 C 236.738281 405.445312 276.457031 418.710938 308.386719 425.832031 C 340.410156 432.96875 383.6875 439.019531 401.410156 441.367188 C 405.980469 441.972656 410.25 438.984375 411.25 434.488281 L 415.476562 415.542969 C 416.574219 410.609375 413.34375 405.75 408.363281 404.855469 L 227.199219 372.472656 C 222.511719 371.628906 217.992188 374.636719 216.957031 379.285156 Z M 216.957031 379.285156 " fill-opacity="1" fill-rule="nonzero"/><path fill="#e2e2d3" d="M 217.433594 374.484375 L 215.15625 384.691406 C 214.171875 389.105469 216.648438 393.550781 220.925781 395.027344 C 237.210938 400.644531 276.929688 413.910156 308.859375 421.027344 C 340.882812 428.171875 384.164062 434.21875 401.886719 436.566406 C 406.453125 437.167969 410.722656 434.1875 411.726562 429.683594 L 415.953125 410.742188 C 417.050781 405.804688 413.820312 400.945312 408.839844 400.054688 L 227.675781 367.671875 C 222.988281 366.832031 218.46875 369.835938 217.433594 374.484375 Z M 217.433594 374.484375 " fill-opacity="1" fill-rule="nonzero"/><path fill="#1c1d23" d="M 225.617188 373.894531 C 222.246094 373.894531 219.246094 376.21875 218.488281 379.625 L 216.210938 389.828125 C 215.398438 393.46875 217.441406 397.125 220.960938 398.339844 C 236.695312 403.769531 276.742188 417.160156 308.726562 424.296875 C 340.808594 431.449219 384.375 437.527344 401.617188 439.804688 C 405.398438 440.304688 408.886719 437.871094 409.71875 434.144531 L 413.945312 415.199219 C 414.386719 413.234375 414.015625 411.222656 412.894531 409.546875 C 411.777344 407.867188 410.070312 406.75 408.082031 406.398438 L 226.917969 374.015625 C 226.484375 373.933594 226.050781 373.894531 225.617188 373.894531 Z M 402.613281 443.007812 C 402.148438 443.007812 401.675781 442.980469 401.207031 442.914062 C 383.921875 440.632812 340.246094 434.535156 308.042969 427.355469 C 275.902344 420.1875 235.71875 406.75 219.9375 401.304688 C 214.910156 399.566406 211.988281 394.34375 213.148438 389.140625 L 215.425781 378.9375 C 216.648438 373.449219 221.9375 369.925781 227.476562 370.914062 L 408.640625 403.296875 C 411.472656 403.800781 413.914062 405.402344 415.507812 407.800781 C 417.105469 410.199219 417.636719 413.0625 417.011719 415.871094 L 412.785156 434.816406 C 411.695312 439.691406 407.457031 443.007812 402.613281 443.007812 Z M 402.613281 443.007812 " fill-opacity="1" fill-rule="nonzero"/><path fill="#e2e2d3" d="M 431.445312 404.789062 C 427.441406 421.574219 407.707031 427.042969 385.59375 427.566406 C 352.851562 428.335938 314.878906 418.324219 314.878906 418.324219 C 314.878906 418.324219 276.230469 411.257812 246.945312 396.648438 C 235.304688 390.84375 225.132812 383.851562 219.445312 375.632812 C 215.460938 369.875 213.664062 363.515625 215.113281 356.546875 C 221.765625 324.464844 272.382812 247.765625 295.796875 213.523438 C 302.980469 203.003906 307.601562 196.492188 307.601562 196.492188 L 360.917969 211.960938 L 415.773438 220.605469 C 415.773438 220.605469 441.398438 363.140625 431.445312 404.789062 Z M 431.445312 404.789062 " fill-opacity="1" fill-rule="nonzero"/><path fill="#afaea0" d="M 322.167969 242.558594 C 322.167969 242.558594 313.65625 249.617188 306.253906 261.710938 C 298.859375 273.804688 267.847656 301.527344 255.957031 306.816406 C 244.078125 312.105469 217.917969 361.757812 220.125 372.328125 C 220.441406 373.820312 220.160156 374.886719 219.445312 375.628906 C 215.460938 369.871094 213.664062 363.511719 215.113281 356.542969 C 221.765625 324.460938 272.382812 247.761719 295.796875 213.519531 Z M 322.167969 242.558594 " fill-opacity="1" fill-rule="nonzero"/><path fill="#1c1d23" d="M 428.042969 403.976562 C 429.527344 396.902344 430.003906 389.273438 430.257812 381.6875 C 430.480469 374.078125 430.34375 366.410156 430.042969 358.734375 C 429.398438 343.382812 428.121094 328.019531 426.566406 312.675781 C 424.988281 297.328125 423.125 282.003906 421.054688 266.707031 C 418.984375 251.40625 416.722656 236.117188 414.226562 220.890625 L 415.53125 222.164062 L 360.679688 213.519531 L 360.582031 213.503906 L 360.488281 213.476562 L 307.171875 197.996094 L 308.886719 197.398438 L 308.882812 197.398438 C 294.050781 218.714844 279.695312 240.398438 265.878906 262.382812 C 258.988281 273.390625 252.242188 284.484375 245.769531 295.722656 C 239.339844 306.980469 233.0625 318.335938 227.558594 330.011719 C 224.808594 335.839844 222.195312 341.742188 220.113281 347.761719 C 219.558594 349.253906 219.152344 350.78125 218.660156 352.289062 C 218.1875 353.796875 217.898438 355.316406 217.503906 356.832031 C 216.953125 359.742188 216.921875 362.65625 217.519531 365.503906 C 218.808594 371.203125 222.515625 376.289062 227.039062 380.480469 C 231.589844 384.703125 236.886719 388.238281 242.453125 391.3125 C 248.015625 394.402344 253.867188 397.039062 259.796875 399.484375 C 265.75 401.882812 271.828125 404.003906 277.96875 405.960938 C 284.109375 407.917969 290.324219 409.652344 296.578125 411.238281 C 302.820312 412.816406 309.160156 414.257812 315.414062 415.429688 L 315.511719 415.453125 L 315.632812 415.480469 C 320.632812 416.730469 325.796875 417.832031 330.914062 418.835938 C 336.050781 419.835938 341.203125 420.734375 346.375 421.484375 C 356.707031 423.03125 367.109375 424.066406 377.480469 424.304688 C 382.65625 424.402344 387.835938 424.347656 392.941406 423.882812 C 398.042969 423.433594 403.089844 422.660156 407.894531 421.3125 C 412.675781 419.945312 417.214844 417.957031 420.863281 415.09375 C 424.535156 412.253906 426.945312 408.359375 428.042969 403.976562 Z M 434.851562 405.597656 C 433.410156 411.445312 429.839844 416.925781 425.101562 420.472656 C 420.394531 424.089844 415.035156 426.296875 409.6875 427.78125 C 404.3125 429.230469 398.878906 430.007812 393.472656 430.4375 C 388.0625 430.875 382.671875 430.886719 377.308594 430.734375 C 366.582031 430.398438 355.957031 429.242188 345.441406 427.574219 C 340.179688 426.757812 334.945312 425.804688 329.734375 424.738281 C 324.507812 423.664062 319.355469 422.523438 314.132812 421.164062 L 314.351562 421.214844 C 307.835938 419.929688 301.503906 418.425781 295.148438 416.761719 C 288.808594 415.097656 282.507812 413.28125 276.269531 411.230469 C 270.03125 409.183594 263.84375 406.964844 257.757812 404.445312 C 251.683594 401.882812 245.683594 399.113281 239.898438 395.835938 C 234.121094 392.574219 228.535156 388.804688 223.585938 384.132812 C 221.144531 381.765625 218.792969 379.230469 216.929688 376.257812 C 215.066406 373.3125 213.484375 370.066406 212.769531 366.523438 C 212.046875 362.996094 212.128906 359.3125 212.835938 355.839844 C 213.265625 354.210938 213.617188 352.539062 214.125 350.949219 C 214.648438 349.367188 215.105469 347.75 215.691406 346.203125 C 217.921875 339.953125 220.636719 333.964844 223.484375 328.066406 C 229.175781 316.261719 235.597656 304.894531 242.164062 293.625 C 248.769531 282.386719 255.636719 271.316406 262.640625 260.335938 C 276.695312 238.40625 291.257812 216.835938 306.320312 195.582031 L 306.324219 195.578125 L 306.96875 194.664062 L 308.042969 194.976562 L 361.359375 210.453125 L 361.167969 210.410156 L 416.019531 219.054688 L 417.121094 219.226562 L 417.316406 220.328125 C 420.175781 235.550781 422.785156 250.796875 425.210938 266.085938 C 427.636719 281.371094 429.855469 296.699219 431.796875 312.074219 C 433.710938 327.449219 435.351562 342.875 436.363281 358.402344 C 436.839844 366.167969 437.160156 373.960938 437.117188 381.804688 C 437.046875 389.660156 436.699219 397.558594 434.851562 405.597656 Z M 434.851562 405.597656 " fill-opacity="1" fill-rule="nonzero"/><path fill="#ff2e57" d="M 392.40625 262.300781 C 392.40625 262.300781 394.621094 329.863281 431.25 346.394531 L 431.257812 346.394531 C 428.480469 312.617188 423.007812 275.058594 419.179688 251.058594 C 409.375 254.667969 392.40625 262.300781 392.40625 262.300781 Z M 392.40625 262.300781 " fill-opacity="1" fill-rule="nonzero"/><path fill="#1c1d23" d="M 394.023438 263.292969 C 394.5 271.632812 398.804688 327.230469 429.460938 343.761719 C 426.726562 311.933594 421.765625 277.4375 417.929688 253.207031 C 409.585938 256.398438 397.511719 261.738281 394.023438 263.292969 Z M 433 348.449219 L 430.601562 347.824219 C 393.511719 331.082031 390.929688 265.152344 390.835938 262.355469 L 390.800781 261.300781 L 391.757812 260.871094 C 391.925781 260.792969 408.890625 253.171875 418.632812 249.585938 L 420.421875 248.925781 L 420.722656 250.808594 C 424.71875 275.855469 430.0625 312.746094 432.816406 346.265625 Z M 433 348.449219 " fill-opacity="1" fill-rule="nonzero"/><path fill="#ff2e57" d="M 313.078125 239.390625 C 313.078125 239.390625 282.355469 299.605469 242.171875 299.011719 L 242.164062 299.007812 C 259.039062 269.613281 279.957031 237.9375 293.625 217.839844 C 300.964844 225.273438 313.078125 239.390625 313.078125 239.390625 Z M 313.078125 239.390625 " fill-opacity="1" fill-rule="nonzero"/><path fill="#1c1d23" d="M 293.839844 220.3125 C 280.066406 240.621094 260.914062 269.742188 244.90625 297.386719 C 279.683594 295.445312 307.21875 246.949219 311.191406 239.601562 C 308.691406 236.710938 300.039062 226.75 293.839844 220.3125 Z M 242.773438 300.582031 C 242.5625 300.582031 242.355469 300.582031 242.148438 300.578125 L 241.863281 300.550781 L 239.726562 300.121094 L 240.800781 298.230469 C 257.542969 269.066406 278.058594 237.941406 292.324219 216.960938 L 293.398438 215.382812 L 294.738281 216.742188 C 302.035156 224.125 314.148438 238.230469 314.269531 238.371094 L 314.953125 239.167969 L 314.472656 240.105469 C 313.210938 242.582031 283.144531 300.582031 242.773438 300.582031 Z M 242.773438 300.582031 " fill-opacity="1" fill-rule="nonzero"/><path fill="#e2e2d3" d="M 403.238281 348.472656 L 385.597656 427.5625 C 352.855469 428.332031 314.882812 418.320312 314.882812 418.320312 C 314.882812 418.320312 283.148438 412.515625 255.40625 400.5625 C 252.53125 399.320312 249.695312 398.011719 246.949219 396.644531 L 264.585938 317.550781 C 266.242188 310.148438 273.582031 305.5 280.964844 307.148438 L 296.855469 310.691406 L 392.832031 332.097656 C 400.234375 333.746094 404.886719 341.070312 403.238281 348.472656 Z M 403.238281 348.472656 " fill-opacity="1" fill-rule="nonzero"/><path fill="#afaea0" d="M 302.96875 314.070312 C 302.96875 314.070312 277.050781 309.085938 272.71875 319.160156 C 269.089844 327.609375 258.695312 382.832031 255.402344 400.5625 C 252.527344 399.320312 249.691406 398.011719 246.945312 396.644531 L 264.582031 317.550781 C 266.238281 310.148438 273.578125 305.5 280.960938 307.148438 L 296.851562 310.691406 Z M 302.96875 314.070312 " fill-opacity="1" fill-rule="nonzero"/><path fill="#1c1d23" d="M 401.316406 348.042969 C 401.742188 345.957031 401.6875 343.757812 400.976562 341.746094 C 400.320312 339.71875 399.042969 337.90625 397.4375 336.523438 C 396.621094 335.835938 395.710938 335.277344 394.753906 334.816406 C 394.257812 334.625 393.773438 334.394531 393.257812 334.261719 L 392.484375 334.042969 L 391.589844 333.839844 L 384.308594 332.214844 L 355.175781 325.71875 L 296.917969 312.726562 L 282.355469 309.480469 L 280.535156 309.070312 C 280.003906 309.007812 279.484375 308.847656 278.953125 308.84375 C 277.890625 308.71875 276.824219 308.839844 275.773438 309.003906 C 274.730469 309.214844 273.71875 309.558594 272.753906 310.023438 C 271.820312 310.527344 270.898438 311.085938 270.121094 311.820312 C 269.339844 312.539062 268.621094 313.339844 268.066406 314.25 C 267.480469 315.140625 267.050781 316.125 266.742188 317.144531 L 266.527344 317.914062 L 266.320312 318.8125 L 265.914062 320.628906 L 265.101562 324.273438 L 261.84375 338.832031 L 255.203125 367.921875 L 251.875 382.464844 L 248.46875 396.992188 L 247.636719 395.25 L 247.640625 395.25 C 252.941406 397.828125 258.359375 400.203125 263.886719 402.3125 C 269.425781 404.398438 275.019531 406.363281 280.6875 408.089844 C 286.355469 409.832031 292.066406 411.441406 297.816406 412.894531 C 303.566406 414.339844 309.371094 415.675781 315.15625 416.792969 L 315.214844 416.800781 L 315.273438 416.816406 C 320.980469 418.265625 326.808594 419.523438 332.621094 420.65625 C 338.449219 421.785156 344.300781 422.757812 350.171875 423.585938 C 356.042969 424.429688 361.941406 425.027344 367.839844 425.492188 C 373.738281 425.929688 379.652344 426.082031 385.550781 426.003906 L 384.054688 427.226562 L 388.308594 407.421875 L 392.640625 387.632812 Z M 405.160156 348.898438 L 396.1875 388.410156 L 391.695312 408.167969 L 387.125 427.902344 L 386.839844 429.125 L 385.628906 429.125 C 379.609375 429.210938 373.597656 429.050781 367.613281 428.609375 C 361.632812 428.140625 355.671875 427.535156 349.742188 426.679688 C 343.8125 425.839844 337.90625 424.855469 332.03125 423.722656 C 326.152344 422.578125 320.320312 421.320312 314.476562 419.835938 L 314.597656 419.867188 C 308.675781 418.722656 302.867188 417.382812 297.058594 415.921875 C 291.257812 414.457031 285.492188 412.839844 279.765625 411.078125 C 274.039062 409.324219 268.382812 407.347656 262.769531 405.230469 C 257.160156 403.089844 251.65625 400.675781 246.242188 398.042969 L 246.238281 398.042969 L 245.140625 397.539062 L 245.40625 396.300781 L 248.492188 381.703125 L 251.664062 367.125 L 258.019531 337.972656 L 261.257812 323.40625 L 262.070312 319.765625 L 262.476562 317.949219 L 262.683594 317.023438 L 262.964844 316 C 263.378906 314.640625 263.957031 313.324219 264.738281 312.132812 C 265.480469 310.917969 266.4375 309.84375 267.484375 308.886719 C 268.527344 307.914062 269.742188 307.15625 270.992188 306.496094 C 272.273438 305.875 273.628906 305.417969 275.027344 305.136719 C 276.421875 304.90625 277.855469 304.765625 279.273438 304.921875 C 279.988281 304.941406 280.679688 305.128906 281.382812 305.230469 L 297.765625 308.886719 L 356.027344 321.878906 L 385.15625 328.371094 L 392.4375 329.996094 L 393.363281 330.203125 L 394.386719 330.484375 C 395.074219 330.667969 395.730469 330.964844 396.382812 331.230469 C 397.671875 331.839844 398.886719 332.597656 399.976562 333.515625 C 402.132812 335.363281 403.816406 337.78125 404.699219 340.484375 C 405.652344 343.175781 405.742188 346.125 405.160156 348.898438 Z M 405.160156 348.898438 " fill-opacity="1" fill-rule="nonzero"/><path fill="#1c1d23" d="M 237.667969 476.34375 C 222.621094 432.292969 189.160156 427.0625 187.742188 426.863281 L 188.59375 420.691406 C 190.164062 420.90625 227.226562 426.492188 243.5625 474.332031 Z M 237.667969 476.34375 " fill-opacity="1" fill-rule="nonzero"/><path fill="#1c1d23" d="M 350.015625 490.464844 L 345.585938 486.078125 C 346.699219 484.953125 373.410156 458.664062 421.492188 474.300781 L 419.5625 480.226562 C 375.289062 465.832031 351.023438 489.449219 350.015625 490.464844 Z M 350.015625 490.464844 " fill-opacity="1" fill-rule="nonzero"/><path fill="#e2e2d3" d="M 202.027344 517.125 C 191.132812 528.917969 173.746094 522.804688 156.1875 506.613281 C 153.941406 504.53125 151.785156 502.390625 149.800781 500.199219 C 140.664062 490.257812 134.417969 479.503906 134.15625 470.410156 C 134.019531 465.929688 135.335938 461.855469 138.464844 458.46875 C 144.425781 452.007812 154.023438 450.15625 164.375 452.449219 C 172.949219 454.351562 182.015625 459.09375 189.960938 466.433594 C 192.289062 468.585938 194.402344 470.84375 196.296875 473.1875 C 208.664062 488.472656 211.46875 506.902344 202.027344 517.125 Z M 202.027344 517.125 " fill-opacity="1" fill-rule="nonzero"/><path fill="#ffffff" d="M 164.375 452.453125 C 163.191406 452.722656 140.960938 457.917969 134.15625 470.410156 C 134.019531 465.929688 135.335938 461.855469 138.464844 458.46875 C 144.425781 452.011719 154.023438 450.160156 164.375 452.453125 Z M 164.375 452.453125 " fill-opacity="1" fill-rule="nonzero"/><path fill="#afaea0" d="M 202.027344 517.125 C 191.132812 528.917969 173.746094 522.804688 156.1875 506.613281 C 153.941406 504.53125 151.785156 502.390625 149.800781 500.199219 C 159.0625 505.53125 169.429688 506.59375 175.410156 508.378906 C 193.238281 513.703125 196.300781 473.1875 196.300781 473.1875 C 208.664062 488.472656 211.46875 506.902344 202.027344 517.125 Z M 202.027344 517.125 " fill-opacity="1" fill-rule="nonzero"/><path fill="#1c1d23" d="M 199.785156 515.058594 C 202.511719 512.210938 204.21875 508.386719 204.710938 504.234375 C 205.242188 500.085938 204.699219 495.707031 203.515625 491.496094 C 201.097656 483.027344 196.085938 475.199219 189.699219 468.832031 C 183.332031 462.433594 175.496094 457.308594 166.847656 454.742188 C 162.542969 453.460938 158.03125 452.832031 153.628906 453.214844 C 149.242188 453.578125 144.96875 455.058594 141.660156 457.773438 C 140.019531 459.144531 138.617188 460.765625 137.644531 462.585938 C 136.640625 464.398438 136.175781 466.460938 136.042969 468.542969 C 135.824219 472.753906 137.140625 477.070312 139.023438 481.058594 C 140.929688 485.074219 143.457031 488.84375 146.269531 492.378906 C 149.101562 495.910156 152.214844 499.238281 155.53125 502.347656 C 158.847656 505.464844 162.34375 508.386719 165.984375 511.019531 C 169.632812 513.644531 173.46875 515.96875 177.472656 517.632812 C 181.464844 519.28125 185.640625 520.230469 189.542969 519.984375 C 193.4375 519.675781 196.96875 517.960938 199.785156 515.058594 Z M 204.265625 519.199219 L 202.835938 520.589844 C 202.351562 521.050781 201.902344 521.542969 201.328125 521.921875 C 200.230469 522.71875 199.15625 523.554688 197.894531 524.125 C 197.277344 524.417969 196.695312 524.800781 196.039062 525.007812 L 194.085938 525.667969 C 193.4375 525.914062 192.753906 525.96875 192.085938 526.105469 C 191.414062 526.203125 190.738281 526.371094 190.066406 526.398438 C 184.640625 526.78125 179.539062 525.328125 175.023438 523.292969 C 170.480469 521.234375 166.390625 518.554688 162.570312 515.636719 C 158.757812 512.6875 155.171875 509.53125 151.855469 506.113281 C 145.222656 499.296875 139.195312 491.703125 135.226562 482.789062 C 133.320312 478.335938 131.929688 473.417969 132.359375 468.285156 C 132.597656 465.742188 133.304688 463.183594 134.582031 460.925781 C 135.851562 458.660156 137.601562 456.738281 139.5625 455.171875 C 143.550781 452.046875 148.492188 450.414062 153.363281 450.046875 C 158.261719 449.675781 163.125 450.378906 167.742188 451.703125 C 176.988281 454.441406 185.324219 459.59375 192.351562 466.089844 C 195.871094 469.347656 199.011719 473.015625 201.753906 477 C 204.484375 480.988281 206.742188 485.347656 208.3125 490.019531 C 209.875 494.679688 210.699219 499.710938 210.253906 504.835938 C 209.855469 509.933594 207.863281 515.167969 204.265625 519.199219 Z M 204.265625 519.199219 " fill-opacity="1" fill-rule="nonzero"/><path fill="#e2e2d3" d="M 444.917969 543.152344 C 439.847656 551.714844 427.476562 557.558594 411.183594 560.550781 C 387.691406 564.867188 364.9375 561.625 362.03125 545.84375 C 360.011719 534.886719 367.421875 523.691406 380.003906 516.425781 C 380.015625 516.417969 380.015625 516.417969 380.015625 516.417969 C 385.570312 513.210938 392.125 510.761719 399.316406 509.445312 C 422.8125 505.128906 444.203125 514.425781 447.101562 530.203125 C 447.988281 535.042969 447.175781 539.371094 444.917969 543.152344 Z M 444.917969 543.152344 " fill-opacity="1" fill-rule="nonzero"/><path fill="#afaea0" d="M 444.917969 543.152344 C 439.847656 551.714844 427.476562 557.558594 411.183594 560.550781 C 387.691406 564.867188 364.9375 561.625 362.03125 545.84375 C 360.011719 534.886719 367.421875 523.691406 380.003906 516.425781 C 379.785156 517.074219 370.511719 544.339844 402.378906 548.324219 C 421.125 550.660156 435.859375 546.804688 444.917969 543.152344 Z M 444.917969 543.152344 " fill-opacity="1" fill-rule="nonzero"/><path fill="#1c1d23" d="M 445.058594 530.582031 C 444.367188 526.46875 442.195312 522.621094 439.039062 519.632812 C 435.914062 516.613281 431.976562 514.351562 427.785156 512.808594 C 419.339844 509.683594 409.933594 509.3125 401.023438 510.859375 C 392.113281 512.410156 383.40625 515.78125 376.347656 521.269531 C 372.839844 524 369.742188 527.242188 367.515625 530.933594 C 365.285156 534.605469 364.035156 538.765625 364.238281 542.835938 C 364.363281 544.875 364.816406 546.851562 365.644531 548.59375 C 366.460938 550.347656 367.730469 551.847656 369.234375 553.136719 C 372.28125 555.703125 376.378906 557.246094 380.617188 558.136719 C 384.882812 559.035156 389.355469 559.347656 393.835938 559.289062 C 398.324219 559.207031 402.835938 558.824219 407.320312 558.144531 C 416.253906 556.753906 425.238281 554.703125 433.011719 550.5625 C 436.855469 548.484375 440.347656 545.800781 442.65625 542.375 C 444.945312 538.949219 445.710938 534.769531 445.058594 530.582031 Z M 449.148438 529.835938 L 449.402344 531.734375 C 449.476562 532.375 449.605469 533.003906 449.5625 533.660156 C 449.550781 534.953125 449.574219 536.257812 449.285156 537.546875 C 448.949219 540.152344 447.863281 542.605469 446.578125 544.859375 C 443.796875 549.269531 439.800781 552.566406 435.585938 555.082031 C 431.34375 557.609375 426.808594 559.402344 422.21875 560.847656 C 417.621094 562.28125 412.949219 563.359375 408.230469 564.09375 C 398.796875 565.53125 389.050781 565.96875 379.351562 563.839844 C 376.9375 563.273438 374.535156 562.523438 372.203125 561.476562 C 369.882812 560.417969 367.597656 559.105469 365.613281 557.304688 C 363.636719 555.515625 361.910156 553.308594 360.835938 550.796875 C 359.742188 548.285156 359.253906 545.621094 359.1875 543.015625 C 359.097656 537.742188 360.886719 532.671875 363.628906 528.503906 C 366.375 524.308594 369.96875 520.847656 373.902344 518 C 381.828125 512.355469 391.054688 508.96875 400.492188 507.542969 C 409.929688 506.152344 419.71875 506.640625 428.882812 509.742188 C 433.4375 511.324219 437.851562 513.613281 441.558594 516.945312 C 445.277344 520.21875 448.132812 524.769531 449.148438 529.835938 Z M 449.148438 529.835938 " fill-opacity="1" fill-rule="nonzero"/><path fill="#1c1d23" d="M 479.640625 301.273438 C 452.164062 285.640625 462.8125 249.949219 462.925781 249.59375 L 466.886719 250.8125 C 466.476562 252.148438 457.128906 283.691406 481.695312 297.671875 Z M 479.640625 301.273438 " fill-opacity="1" fill-rule="nonzero"/><path fill="#1c1d23" d="M 222.738281 240.773438 L 222.226562 236.65625 C 246.207031 233.6875 257.75 201.953125 257.859375 201.636719 L 261.769531 203.023438 C 261.273438 204.425781 249.269531 237.484375 222.738281 240.773438 Z M 222.738281 240.773438 " fill-opacity="1" fill-rule="nonzero"/><path fill="#afaea0" d="M 302.972656 339.890625 C 302.972656 348.242188 296.207031 355.015625 287.855469 355.015625 C 286.339844 355.015625 284.875 354.796875 283.496094 354.378906 C 277.261719 352.507812 272.726562 346.722656 272.726562 339.886719 C 272.726562 332.285156 278.332031 326.015625 285.628906 324.9375 C 286.347656 324.824219 287.101562 324.773438 287.855469 324.773438 C 296.207031 324.773438 302.972656 331.539062 302.972656 339.890625 Z M 302.972656 339.890625 " fill-opacity="1" fill-rule="nonzero"/><path fill="#e2e2d3" d="M 302.972656 339.890625 C 302.972656 348.242188 296.207031 355.015625 287.855469 355.015625 C 286.339844 355.015625 284.875 354.796875 283.496094 354.378906 C 294.890625 343.765625 288.851562 330.335938 285.628906 324.9375 C 286.347656 324.824219 287.101562 324.773438 287.855469 324.773438 C 296.207031 324.773438 302.972656 331.539062 302.972656 339.890625 Z M 302.972656 339.890625 " fill-opacity="1" fill-rule="nonzero"/><path fill="#1c1d23" d="M 287.851562 326.339844 C 280.375 326.339844 274.296875 332.421875 274.296875 339.890625 C 274.296875 347.359375 280.378906 353.441406 287.851562 353.441406 C 295.328125 353.441406 301.40625 347.359375 301.40625 339.890625 C 301.40625 332.417969 295.324219 326.339844 287.851562 326.339844 Z M 287.851562 356.578125 C 278.644531 356.578125 271.160156 349.09375 271.160156 339.890625 C 271.160156 330.6875 278.644531 323.203125 287.851562 323.203125 C 297.058594 323.203125 304.542969 330.6875 304.542969 339.890625 C 304.542969 349.09375 297.054688 356.578125 287.851562 356.578125 Z M 287.851562 356.578125 " fill-opacity="1" fill-rule="nonzero"/><path fill="#e2e2d3" d="M 241.113281 92.988281 L 254.164062 31.378906 L 261.332031 32.507812 L 253.152344 87.570312 Z M 241.113281 92.988281 " fill-opacity="1" fill-rule="nonzero"/><path fill="#1c1d23" d="M 255.394531 33.160156 L 243.292969 90.292969 L 251.726562 86.496094 L 259.554688 33.816406 Z M 238.941406 95.6875 L 252.9375 29.597656 L 263.109375 31.199219 L 254.574219 88.648438 Z M 238.941406 95.6875 " fill-opacity="1" fill-rule="nonzero"/><path fill="#e2e2d3" d="M 252.757812 188.265625 C 252.757812 188.265625 251.058594 187.628906 248.527344 186.527344 C 243.34375 184.277344 234.734375 180.085938 230.296875 175.453125 C 223.691406 168.542969 227.15625 113.351562 230.121094 103.679688 C 231.839844 98.042969 242.347656 91.824219 250.796875 87.628906 C 256.824219 84.636719 261.804688 82.664062 261.804688 82.664062 Z M 252.757812 188.265625 " fill-opacity="1" fill-rule="nonzero"/><path fill="#afaea0" d="M 252.757812 188.265625 C 252.757812 188.265625 251.058594 187.628906 248.527344 186.527344 C 225.046875 158.878906 247.214844 91.679688 247.214844 91.679688 L 250.792969 87.625 C 256.820312 84.632812 261.800781 82.664062 261.800781 82.664062 Z M 252.757812 188.265625 " fill-opacity="1" fill-rule="nonzero"/><path fill="#1c1d23" d="M 262.382812 84.117188 C 257.234375 86.398438 252.097656 88.894531 247.214844 91.679688 C 244.765625 93.070312 242.394531 94.570312 240.121094 96.140625 C 237.871094 97.730469 235.707031 99.453125 234.046875 101.375 C 233.238281 102.328125 232.578125 103.351562 232.296875 104.257812 C 231.960938 105.363281 231.726562 106.789062 231.507812 108.128906 C 231.089844 110.875 230.792969 113.691406 230.53125 116.507812 C 229.988281 122.144531 229.628906 127.820312 229.394531 133.496094 C 229.144531 139.171875 229.011719 144.855469 229.082031 150.511719 C 229.175781 156.15625 229.351562 161.839844 230.128906 167.261719 C 230.234375 167.933594 230.324219 168.613281 230.46875 169.253906 L 230.664062 170.230469 L 230.910156 171.15625 C 230.984375 171.476562 231.082031 171.761719 231.183594 172.035156 C 231.289062 172.296875 231.363281 172.636719 231.492188 172.835938 C 231.605469 173.035156 231.707031 173.34375 231.820312 173.472656 C 231.871094 173.535156 231.917969 173.605469 231.960938 173.679688 L 232.023438 173.792969 L 232.191406 173.960938 C 233.9375 175.796875 236.171875 177.414062 238.46875 178.921875 C 243.109375 181.902344 248.199219 184.496094 253.304688 186.792969 L 252.210938 189.730469 C 249.40625 188.824219 246.730469 187.761719 244.046875 186.601562 C 241.367188 185.453125 238.738281 184.160156 236.171875 182.675781 C 233.605469 181.179688 231.101562 179.511719 228.792969 177.292969 L 228.574219 177.089844 L 228.316406 176.773438 L 227.816406 176.121094 C 227.496094 175.679688 227.351562 175.300781 227.121094 174.878906 C 226.882812 174.457031 226.789062 174.085938 226.625 173.691406 C 226.472656 173.300781 226.332031 172.90625 226.234375 172.53125 L 225.90625 171.390625 L 225.648438 170.265625 C 225.464844 169.511719 225.351562 168.777344 225.214844 168.039062 C 224.710938 165.085938 224.476562 162.167969 224.285156 159.257812 C 224.097656 156.351562 224.011719 153.453125 223.996094 150.558594 C 223.949219 144.773438 224.097656 139.007812 224.390625 133.253906 C 224.699219 127.496094 225.132812 121.75 225.757812 116.003906 C 226.09375 113.132812 226.46875 110.261719 226.980469 107.359375 C 227.265625 105.886719 227.503906 104.484375 228.027344 102.859375 C 228.664062 101.042969 229.6875 99.679688 230.742188 98.476562 C 232.894531 96.113281 235.308594 94.328125 237.761719 92.671875 C 240.222656 91.035156 242.777344 89.597656 245.359375 88.253906 C 250.53125 85.578125 255.789062 83.226562 261.238281 81.183594 Z M 262.382812 84.117188 " fill-opacity="1" fill-rule="nonzero"/><path fill="#e2e2d3" d="M 531.808594 145.917969 L 541.324219 83.664062 L 534.21875 82.195312 L 522.457031 136.605469 Z M 531.808594 145.917969 " fill-opacity="1" fill-rule="nonzero"/><path fill="#1c1d23" d="M 524.171875 136.097656 L 530.726562 142.625 L 539.546875 84.898438 L 535.421875 84.046875 Z M 532.894531 149.207031 L 520.746094 137.109375 L 533.015625 80.34375 L 543.101562 82.429688 Z M 532.894531 149.207031 " fill-opacity="1" fill-rule="nonzero"/><path fill="#e2e2d3" d="M 512.847656 226.898438 C 509.25 228.625 504.199219 229.621094 499.539062 230.191406 C 493.046875 230.988281 487.308594 230.972656 487.308594 230.972656 L 516.089844 128.960938 C 516.089844 128.960938 521.03125 133.441406 526.261719 139.269531 C 532.28125 145.957031 538.667969 154.398438 538.328125 159.796875 C 537.691406 169.890625 521.46875 222.765625 512.847656 226.898438 Z M 512.847656 226.898438 " fill-opacity="1" fill-rule="nonzero"/><path fill="#afaea0" d="M 499.539062 230.191406 C 493.046875 230.988281 487.308594 230.972656 487.308594 230.972656 L 516.089844 128.960938 C 516.089844 128.960938 521.03125 133.441406 526.261719 139.269531 C 525.828125 150.410156 522.65625 199.03125 499.539062 230.191406 Z M 499.539062 230.191406 " fill-opacity="1" fill-rule="nonzero"/><path fill="#1c1d23" d="M 487.308594 232.542969 L 487.316406 229.40625 C 487.484375 229.40625 503.984375 229.410156 512.167969 225.484375 C 519.515625 221.960938 536.046875 170.980469 536.765625 159.703125 C 537.25 152.050781 521.242188 135.75 515.035156 130.117188 L 517.136719 127.796875 C 519.542969 129.96875 540.566406 149.359375 539.898438 159.898438 C 539.277344 169.644531 523.125 223.710938 513.53125 228.3125 C 504.695312 232.550781 488.015625 232.546875 487.308594 232.542969 Z M 487.308594 232.542969 " fill-opacity="1" fill-rule="nonzero"/><path fill="#e2e2d3" d="M 487.351562 230.867188 C 486.171875 232.222656 484.964844 233.542969 483.699219 234.832031 C 480.921875 237.714844 477.949219 240.425781 474.808594 242.976562 C 468.121094 248.390625 460.675781 253.035156 452.472656 256.863281 C 427.96875 268.285156 396.789062 272.289062 359.574219 267 C 322.894531 258.835938 295.121094 244.097656 276.226562 224.769531 C 269.902344 218.296875 264.5625 211.320312 260.21875 203.902344 C 259.925781 203.410156 259.644531 202.914062 259.371094 202.421875 C 237.433594 163.492188 243.398438 112.734375 271.554688 59.039062 C 279.84375 43.253906 291.175781 31.269531 304.453125 22.550781 C 333.367188 3.570312 371.460938 0.0625 407.054688 6.371094 C 436.46875 11.875 465.113281 24.261719 485.667969 44.253906 C 501.335938 59.464844 512.300781 79.101562 515.296875 103.425781 C 516.429688 112.566406 517.082031 121.460938 517.28125 130.082031 C 518.296875 171.496094 508.589844 206.414062 487.351562 230.867188 Z M 487.351562 230.867188 " fill-opacity="1" fill-rule="nonzero"/><path fill="#ffffff" d="M 485.667969 44.253906 C 469.929688 34.460938 443.972656 22.382812 402.667969 15.113281 C 363.226562 8.175781 328.242188 14.917969 304.457031 22.550781 C 333.371094 3.570312 371.460938 0.0625 407.054688 6.371094 C 436.472656 11.878906 465.117188 24.265625 485.667969 44.253906 Z M 485.667969 44.253906 " fill-opacity="1" fill-rule="nonzero"/><path fill="#afaea0" d="M 483.699219 234.832031 C 480.921875 237.714844 477.949219 240.425781 474.808594 242.976562 C 468.121094 248.390625 460.675781 253.035156 452.472656 256.863281 C 427.96875 268.285156 396.789062 272.289062 359.574219 267 C 322.894531 258.835938 295.121094 244.097656 276.226562 224.769531 C 269.902344 218.296875 264.5625 211.320312 260.21875 203.902344 C 259.925781 203.410156 259.644531 202.914062 259.371094 202.421875 C 254.457031 181.785156 252.054688 143.101562 272.285156 104.304688 C 305.890625 39.84375 339.101562 29.042969 400.976562 40.308594 C 457.257812 50.558594 507.058594 90.511719 496.769531 179.070312 C 494.222656 201.035156 489.457031 219.496094 483.699219 234.832031 Z M 483.699219 234.832031 " fill-opacity="1" fill-rule="nonzero"/><path fill="#1c1d23" d="M 485.609375 229.351562 C 495.183594 218.25 502.144531 205.035156 506.769531 191.085938 C 509.125 184.113281 510.804688 176.910156 512.0625 169.644531 C 513.308594 162.371094 514.148438 155.011719 514.484375 147.621094 C 515.253906 132.839844 514.480469 117.953125 512.601562 103.25 C 510.734375 88.765625 505.640625 74.746094 497.546875 62.617188 C 493.5 56.554688 488.769531 50.945312 483.519531 45.855469 C 478.257812 40.773438 472.460938 36.234375 466.335938 32.1875 C 454.085938 24.070312 440.433594 18.09375 426.332031 13.761719 C 419.273438 11.605469 412.058594 9.890625 404.800781 8.632812 C 397.527344 7.417969 390.160156 6.609375 382.785156 6.265625 C 368.046875 5.609375 353.191406 6.78125 338.941406 10.394531 C 331.828125 12.214844 324.878906 14.644531 318.246094 17.738281 C 311.605469 20.824219 305.347656 24.675781 299.574219 29.132812 C 293.796875 33.597656 288.539062 38.730469 283.992188 44.445312 C 279.414062 50.160156 275.566406 56.347656 272.277344 62.988281 C 265.5 76.203125 259.71875 89.941406 255.492188 104.136719 L 253.921875 109.464844 L 252.632812 114.859375 L 251.988281 117.558594 L 251.664062 118.90625 L 251.414062 120.265625 L 250.429688 125.71875 C 250.269531 126.628906 250.089844 127.535156 249.945312 128.445312 L 249.617188 131.195312 L 248.957031 136.6875 C 248.761719 138.523438 248.726562 140.367188 248.601562 142.203125 L 248.367188 146.339844 L 248.382812 147.722656 C 248.457031 151.398438 248.339844 155.085938 248.761719 158.742188 C 248.9375 160.574219 249.019531 162.410156 249.242188 164.234375 C 249.527344 166.042969 249.796875 167.859375 250.054688 169.683594 C 250.195312 170.589844 250.289062 171.507812 250.472656 172.40625 L 251.054688 175.097656 C 251.453125 176.886719 251.804688 178.699219 252.246094 180.480469 L 253.855469 185.757812 C 254.132812 186.632812 254.363281 187.53125 254.683594 188.394531 L 255.71875 190.957031 C 256.425781 192.652344 257.078125 194.382812 257.851562 196.050781 L 260.429688 200.945312 C 260.871094 201.753906 261.285156 202.578125 261.742188 203.378906 C 262.210938 204.171875 262.691406 204.960938 263.183594 205.742188 C 264.164062 207.300781 265.191406 208.835938 266.253906 210.339844 C 270.515625 216.367188 275.417969 221.9375 280.8125 226.984375 C 291.605469 237.09375 304.289062 245.09375 317.730469 251.328125 C 331.199219 257.566406 345.476562 261.980469 359.984375 265.242188 L 359.84375 265.21875 C 371.199219 266.757812 382.65625 267.59375 394.085938 267.34375 C 399.800781 267.257812 405.496094 266.796875 411.164062 266.15625 C 416.828125 265.46875 422.433594 264.445312 427.972656 263.140625 C 433.507812 261.835938 438.929688 260.097656 444.222656 258.0625 C 449.507812 256.011719 454.65625 253.609375 459.550781 250.769531 C 469.359375 245.117188 478.25 237.910156 485.609375 229.351562 Z M 489.089844 232.378906 C 481.324219 241.289062 471.960938 248.761719 461.714844 254.546875 C 456.597656 257.464844 451.230469 259.921875 445.742188 262.003906 C 440.242188 264.074219 434.628906 265.832031 428.917969 267.132812 C 423.207031 268.4375 417.4375 269.449219 411.625 270.113281 C 405.8125 270.726562 399.984375 271.152344 394.148438 271.199219 C 382.476562 271.382812 370.839844 270.421875 359.324219 268.816406 L 359.253906 268.804688 L 359.1875 268.792969 C 344.484375 265.421875 329.984375 260.878906 316.269531 254.457031 C 302.578125 248.039062 289.617188 239.796875 278.558594 229.355469 C 273.03125 224.144531 268.011719 218.386719 263.648438 212.160156 C 262.554688 210.605469 261.507812 209.019531 260.5 207.40625 C 259.996094 206.597656 259.503906 205.785156 259.023438 204.96875 C 258.550781 204.144531 258.128906 203.289062 257.675781 202.453125 L 254.992188 197.417969 C 254.191406 195.691406 253.449219 193.941406 252.671875 192.203125 L 251.503906 189.59375 C 251.132812 188.71875 250.847656 187.808594 250.519531 186.914062 L 248.597656 181.527344 C 248.050781 179.703125 247.597656 177.847656 247.085938 176.007812 L 246.34375 173.238281 C 246.109375 172.3125 245.992188 171.363281 245.8125 170.429688 C 245.472656 168.550781 245.148438 166.667969 244.839844 164.785156 C 244.578125 162.894531 244.46875 160.988281 244.289062 159.089844 C 243.839844 155.289062 243.941406 151.472656 243.855469 147.667969 L 243.839844 146.238281 L 243.914062 144.8125 L 244.066406 141.960938 C 244.1875 140.0625 244.21875 138.15625 244.414062 136.265625 L 245.078125 130.605469 L 245.410156 127.773438 C 245.554688 126.835938 245.734375 125.902344 245.894531 124.96875 L 247.144531 117.957031 L 247.472656 116.574219 L 248.125 113.804688 L 249.433594 108.269531 L 251.023438 102.8125 C 255.300781 88.273438 261.148438 74.257812 267.996094 60.800781 C 274.648438 47.128906 284.34375 34.59375 296.53125 25.226562 C 302.59375 20.511719 309.167969 16.445312 316.105469 13.195312 C 323.042969 9.929688 330.289062 7.375 337.683594 5.453125 C 352.503906 1.679688 367.84375 0.457031 383.023438 1.113281 C 390.621094 1.460938 398.175781 2.28125 405.679688 3.527344 C 413.1875 4.820312 420.582031 6.566406 427.851562 8.777344 C 442.375 13.21875 456.480469 19.359375 469.242188 27.789062 C 475.617188 31.996094 481.675781 36.722656 487.199219 42.042969 C 492.710938 47.378906 497.699219 53.273438 501.980469 59.671875 C 510.570312 72.457031 515.914062 87.359375 517.839844 102.582031 C 519.742188 117.589844 520.414062 132.753906 519.554688 147.898438 C 519.175781 155.46875 518.285156 163.023438 516.953125 170.503906 C 515.617188 177.980469 513.847656 185.40625 511.375 192.621094 C 506.5 207.046875 499.175781 220.804688 489.089844 232.378906 Z M 489.089844 232.378906 " fill-opacity="1" fill-rule="nonzero"/><path fill="#1c1d23" d="M 492.5 189.984375 C 487.519531 217.328125 472.835938 240.527344 452.480469 256.871094 C 427.976562 268.292969 396.796875 272.296875 359.582031 267.007812 C 322.890625 258.839844 295.125 244.105469 276.222656 224.777344 C 262.9375 202.308594 257.378906 175.425781 262.359375 148.078125 C 273.597656 86.394531 334.222656 45.78125 397.773438 57.355469 C 461.324219 68.929688 503.738281 128.300781 492.5 189.984375 Z M 492.5 189.984375 " fill-opacity="1" fill-rule="nonzero"/><path fill="#ffffff" d="M 278.363281 169.011719 C 274.683594 169.285156 278.488281 198.152344 296.054688 220.519531 C 315.882812 245.765625 350.71875 252.796875 351.988281 248.222656 C 353.832031 241.566406 328.515625 240.660156 305.722656 218.464844 C 286.339844 199.585938 282.421875 168.710938 278.363281 169.011719 Z M 278.363281 169.011719 " fill-opacity="1" fill-rule="nonzero"/><path fill="#ffffff" d="M 477.804688 151.066406 C 480.425781 150.550781 480.324219 139.777344 476 128.671875 C 471.425781 116.90625 460.996094 108.484375 458.847656 109.847656 C 457.324219 110.808594 459.691406 114.101562 465.570312 125.9375 C 473.820312 142.554688 475.417969 151.535156 477.804688 151.066406 Z M 477.804688 151.066406 " fill-opacity="1" fill-rule="nonzero"/><path fill="#ffffff" d="M 454.066406 101.359375 C 452.3125 97.867188 446.214844 97.328125 445.171875 98.9375 C 444.617188 99.796875 445.519531 101.273438 445.90625 101.90625 C 447.855469 105.085938 452.550781 106.714844 454.0625 105.292969 C 454.972656 104.433594 454.648438 102.515625 454.066406 101.359375 Z M 454.066406 101.359375 " fill-opacity="1" fill-rule="nonzero"/></svg>